<?xml version="1.0" standalone="no"?>
<!DOCTYPE svg PUBLIC "-//W3C//DTD SVG 20010904//EN"
 "http://www.w3.org/TR/2001/REC-SVG-20010904/DTD/svg10.dtd">
<svg version="1.0" xmlns="http://www.w3.org/2000/svg"
 width="430.000000pt" height="430.000000pt" viewBox="0 0 430.000000 430.000000"
 preserveAspectRatio="xMidYMid meet">
<metadata>
Created by potrace 1.14, written by Peter Selinger 2001-2017
</metadata>
<g transform="translate(0.000000,430.000000) scale(0.100000,-0.100000)"
fill="#000000" stroke="none">
<path d="M3355 4060 c-3 -5 -1 -10 4 -10 6 0 11 5 11 10 0 6 -2 10 -4 10 -3 0
-8 -4 -11 -10z"/>
<path d="M2866 4018 c3 -5 10 -6 15 -3 13 9 11 12 -6 12 -8 0 -12 -4 -9 -9z"/>
<path d="M1710 3996 c0 -2 8 -10 18 -17 15 -13 16 -12 3 4 -13 16 -21 21 -21
13z"/>
<path d="M3270 3979 c0 -5 5 -7 10 -4 6 3 10 8 10 11 0 2 -4 4 -10 4 -5 0 -10
-5 -10 -11z"/>
<path d="M1005 3822 c-5 -5 -67 -16 -97 -16 -14 -1 -24 -4 -22 -8 2 -3 -13
-12 -33 -19 -21 -6 -51 -21 -68 -32 -53 -37 -136 -120 -157 -159 -12 -20 -24
-35 -28 -33 -4 3 -7 -3 -6 -13 0 -10 -5 -16 -14 -14 -11 3 -12 0 -4 -8 8 -8 5
-26 -8 -65 -17 -52 -18 -114 -18 -1212 0 -637 3 -1176 5 -1198 10 -72 56 -185
93 -223 7 -8 9 -18 6 -24 -4 -6 -3 -8 3 -5 11 7 66 -46 58 -56 -3 -4 -2 -5 1
-2 6 4 61 -30 74 -45 7 -8 108 -51 134 -56 11 -3 39 -7 61 -9 52 -7 2289 -7
2335 0 55 8 72 12 111 29 20 8 39 12 43 9 3 -4 6 -1 6 5 0 6 14 18 31 26 26
13 35 14 48 3 14 -11 14 -10 2 6 -12 16 -12 20 5 31 34 24 71 62 83 84 7 12
19 22 29 22 12 0 13 3 4 8 -9 6 -8 13 5 28 10 10 20 28 21 39 2 11 8 25 13 31
9 12 17 46 18 82 1 13 5 21 10 17 5 -3 13 0 17 6 4 8 3 9 -4 5 -9 -5 -12 283
-12 1151 1 1104 -2 1214 -28 1283 -5 14 -9 27 -8 30 0 3 -9 19 -22 37 -12 17
-22 36 -22 42 0 6 -5 11 -12 11 -6 0 -9 3 -6 6 7 6 -102 114 -115 114 -5 0 -5
5 -1 12 5 7 3 8 -6 3 -8 -5 -17 -2 -24 7 -6 8 -14 15 -19 16 -4 0 -31 10 -60
20 -28 11 -70 23 -92 26 -40 6 -2324 14 -2330 8z"/>
<path d="M3436 3813 c-6 -14 -5 -15 5 -6 7 7 10 15 7 18 -3 3 -9 -2 -12 -12z"/>
<path d="M3756 3507 c3 -10 9 -15 12 -12 3 3 0 11 -7 18 -10 9 -11 8 -5 -6z"/>
<path d="M470 3396 c0 -2 8 -10 18 -17 15 -13 16 -12 3 4 -13 16 -21 21 -21
13z"/>
<path d="M309 3023 c-13 -16 -12 -17 4 -4 9 7 17 15 17 17 0 8 -8 3 -21 -13z"/>
<path d="M3836 1027 c3 -10 9 -15 12 -12 3 3 0 11 -7 18 -10 9 -11 8 -5 -6z"/>
<path d="M3990 1019 c0 -5 5 -7 10 -4 6 3 10 8 10 11 0 2 -4 4 -10 4 -5 0 -10
-5 -10 -11z"/>
<path d="M3990 860 c0 -5 5 -10 11 -10 5 0 7 5 4 10 -3 6 -8 10 -11 10 -2 0
-4 -4 -4 -10z"/>
<path d="M316 693 c-6 -14 -5 -15 5 -6 7 7 10 15 7 18 -3 3 -9 -2 -12 -12z"/>
<path d="M470 699 c0 -5 5 -7 10 -4 6 3 10 8 10 11 0 2 -4 4 -10 4 -5 0 -10
-5 -10 -11z"/>
<path d="M795 549 c-4 -6 -5 -12 -2 -15 2 -3 7 2 10 11 7 17 1 20 -8 4z"/>
<path d="M310 546 c0 -2 7 -7 16 -10 8 -3 12 -2 9 4 -6 10 -25 14 -25 6z"/>
<path d="M635 540 c-3 -5 -1 -10 4 -10 6 0 11 5 11 10 0 6 -2 10 -4 10 -3 0
-8 -4 -11 -10z"/>
<path d="M3590 540 c0 -5 5 -10 11 -10 5 0 7 5 4 10 -3 6 -8 10 -11 10 -2 0
-4 -4 -4 -10z"/>
<path d="M913 465 c0 -8 4 -12 9 -9 5 3 6 10 3 15 -9 13 -12 11 -12 -6z"/>
<path d="M550 466 c0 -2 7 -7 16 -10 8 -3 12 -2 9 4 -6 10 -25 14 -25 6z"/>
</g>
</svg>
