<svg width="135" height="32" viewBox="0 0 135 32" fill="none" xmlns="http://www.w3.org/2000/svg">
<path d="M5.956 18.59L4.086 14.85H3.916L4.46 18.59V31H0.0400001V7.03H3.44L12.45 19.712L14.252 23.35H14.422L13.878 19.712V7.2H18.298V31.17H14.898L5.956 18.59ZM32.5857 7.2H46.6957V11.348H37.2437V16.89H45.8457V21.038H37.2437V26.852H46.8657V31H32.5857V7.2ZM116.686 11.348H109.75V31H105.092V11.348H98.1224V7.2H116.686V11.348ZM129.789 7.2H134.447V31H129.789V7.2Z" fill="white"/>
<path d="M68.5414 19.56L58.4214 0.199998H65.5934L71.2254 11.772L71.8414 15.028H72.0614L72.7214 11.684L78.1774 0.199998H84.6454L74.5694 19.516V31H68.5414V19.56Z" fill="#A245FF"/>
</svg>
